<svg xmlns="http://www.w3.org/2000/svg" width="24" height="24" viewBox="0 0 24 24"><path fill-rule="evenodd" d="M11.177 7.323a.5.5 0 0 1 .707 0l4.323 4.323a.5.5 0 0 1 0 .708l-4.323 4.323a.5.5 0 0 1-.707 0l-.354-.354a.5.5 0 0 1 0-.707l2.866-2.866H4.5a.5.5 0 0 1-.5-.5v-.5a.5.5 0 0 1 .5-.5h9.19l-2.867-2.866a.5.5 0 0 1 0-.707l.354-.354Z" clip-rule="evenodd"/><mask id="a" fill="#fff"><path d="M18 3.5H6a.5.5 0 0 0-.5.5v3.5A.5.5 0 0 1 5 8h-.5a.5.5 0 0 1-.5-.5V4a2 2 0 0 1 2-2h12a2 2 0 0 1 2 2v16a2 2 0 0 1-2 2H6a2 2 0 0 1-2-2v-3.5a.5.5 0 0 1 .5-.5H5a.5.5 0 0 1 .5.5V20a.5.5 0 0 0 .5.5h12a.5.5 0 0 0 .5-.5V4a.5.5 0 0 0-.5-.5Z"/></mask><path d="M6 5h12V2H6v3Zm1-1a1 1 0 0 1-1 1V2a2 2 0 0 0-2 2h3ZM6 19a1 1 0 0 1 1 1H4a2 2 0 0 0 2 2v-3Zm12 0H6v3h12v-3Zm-1 1a1 1 0 0 1 1-1v3a2 2 0 0 0 2-2h-3Zm0-16v16h3V4h-3Zm1 1a1 1 0 0 1-1-1h3a2 2 0 0 0-2-2v3ZM5.5 4a.5.5 0 0 1 .5-.5v-3A3.5 3.5 0 0 0 2.5 4h3ZM6 20.5a.5.5 0 0 1-.5-.5h-3A3.5 3.5 0 0 0 6 23.5v-3Zm12 0H6v3h12v-3Zm.5-.5a.5.5 0 0 1-.5.5v3a3.5 3.5 0 0 0 3.5-3.5h-3Zm0-16v16h3V4h-3Zm-.5-.5a.5.5 0 0 1 .5.5h3A3.5 3.5 0 0 0 18 .5v3Zm-12 0h12v-3H6v3Zm-.5 4V4h-3v3.5h3Zm1.5 0V4H4v3.5h3Zm-2.5 2H5v-3h-.5v3ZM7 20v-3.5H4V20h3Zm-1.5 0v-3.5h-3V20h3ZM5 14.5h-.5v3H5v-3Zm.5 2a1 1 0 0 1-1 1v-3a2 2 0 0 0-2 2h3Zm1.5 0a2 2 0 0 0-2-2v3a1 1 0 0 1-1-1h3Zm-3-9a1 1 0 0 1 1-1v3a2 2 0 0 0 2-2H4Zm-1.5 0a2 2 0 0 0 2 2v-3a1 1 0 0 1 1 1h-3Z" mask="url(#a)"/></svg>