<svg width="32" height="33" viewBox="0 0 32 33" fill="none" xmlns="http://www.w3.org/2000/svg">
<path fill-rule="evenodd" clip-rule="evenodd" d="M3.85367 13.9792C3.56601 13.5077 2.95063 13.3587 2.47917 13.6464C2.00771 13.934 1.85872 14.5494 2.14637 15.0209C2.26364 15.2131 2.69453 15.7472 3.33222 16.4055C3.99619 17.091 4.93985 17.9689 6.126 18.8436C6.36444 19.0195 6.6133 19.1957 6.87224 19.3704L4.70702 21.5357C4.3165 21.9262 4.3165 22.5593 4.70702 22.9499C5.09754 23.3404 5.73071 23.3404 6.12123 22.9499L8.63389 20.4372C10.4394 21.409 12.5855 22.1999 15 22.4359V26.0001C15 26.5524 15.4477 27.0001 16 27.0001C16.5522 27.0001 17 26.5524 17 26.0001V22.4465C18.6181 22.2913 21.2422 21.758 23.9142 20.3285L26.5355 22.9498C26.9261 23.3404 27.5592 23.3404 27.9497 22.9498C28.3403 22.5593 28.3403 21.9262 27.9497 21.5356L25.668 19.2539C27.1629 18.2107 28.6061 16.8455 29.8252 15.0649C30.1372 14.6092 30.0207 13.9869 29.5649 13.6749C29.1092 13.3629 28.4869 13.4794 28.1749 13.9351C24.334 19.5452 17.879 20.4944 16.0165 20.5C12.4785 20.3761 9.48221 18.8338 7.31308 17.234C6.23107 16.436 5.37 15.6347 4.76876 15.014C4.21201 14.4393 3.91716 14.0605 3.86279 13.9906C3.85588 13.9817 3.85286 13.9778 3.85367 13.9792Z" fill="#B3B3BC"/>
</svg>
